HIERARCHY
ROOT hip
{
  OFFSET 0 0 0
  CHANNELS 6 Xposition Yposition Zposition Zrotation Yrotation Xrotation
  JOINT abdomen
  {
    OFFSET 0 20.6881 -0.73152
    CHANNELS 3 Zrotation Xrotation Yrotation
    JOINT chest
    {
      OFFSET 0 11.7043 -0.48768
      CHANNELS 3 Zrotation Xrotation Yrotation
      JOINT neck
      {
        OFFSET 0 22.1894 -2.19456
        CHANNELS 3 Zrotation Xrotation Yrotation
        JOINT head
        {
          OFFSET -0.24384 7.07133 1.2192
          CHANNELS 3 Zrotation Xrotation Yrotation
          JOINT leftEye
          {
            OFFSET 4.14528 8.04674 8.04672
            CHANNELS 3 Zrotation Xrotation Yrotation
            End Site
            {
              OFFSET 1 0 0
            }
          }
          JOINT rightEye
          {
            OFFSET -3.6576 8.04674 8.04672
            CHANNELS 3 Zrotation Xrotation Yrotation
            End Site
            {
              OFFSET 1 0 0
            }
          }
        }
      }
      JOINT rCollar
      {
        OFFSET -2.68224 19.2634 -4.8768
        CHANNELS 3 Zrotation Xrotation Yrotation
        JOINT rShldr
        {
          OFFSET -8.77824 -1.95073 1.46304
          CHANNELS 3 Zrotation Xrotation Yrotation
          JOINT rForeArm
          {
            OFFSET -28.1742 -1.7115 0.48768
            CHANNELS 3 Zrotation Xrotation Yrotation
            JOINT rHand
            {
              OFFSET -22.5879 0.773209 7.07136
              CHANNELS 3 Zrotation Xrotation Yrotation
              JOINT rThumb1
              {
                OFFSET -1.2192 -0.487915 3.41376
                CHANNELS 3 Zrotation Xrotation Yrotation
                JOINT rThumb2
                {
                  OFFSET -3.37035 -0.52449 3.41376
                  CHANNELS 3 Zrotation Xrotation Yrotation
                  End Site
                  {
                    OFFSET -1.78271 -1.18214 1.43049
                  }
                }
              }
              JOINT rIndex1
              {
                OFFSET -7.75947 0.938293 5.60832
                CHANNELS 3 Zrotation Xrotation Yrotation
                JOINT rIndex2
                {
                  OFFSET -2.54057 -0.884171 1.56538
                  CHANNELS 3 Zrotation Xrotation Yrotation
                  End Site
                  {
                    OFFSET -1.62519 -0.234802 1.16502
                  }
                }
              }
              JOINT rMid1
              {
                OFFSET -8.24714 1.18213 3.41376
                CHANNELS 3 Zrotation Xrotation Yrotation
                JOINT rMid2
                {
                  OFFSET -3.10165 -0.590103 1.0647
                  CHANNELS 3 Zrotation Xrotation Yrotation
                  End Site
                  {
                    OFFSET -2.48547 -0.328903 0.83742
                  }
                }
              }
              JOINT rRing1
              {
                OFFSET -8.82822 0.546677 1.51678
                CHANNELS 3 Zrotation Xrotation Yrotation
                JOINT rRing2
                {
                  OFFSET -2.60934 -0.819778 -0.0198488
                  CHANNELS 3 Zrotation Xrotation Yrotation
                  End Site
                  {
                    OFFSET -2.33842 -0.294052 0.168128
                  }
                }
              }
              JOINT rPinky1
              {
                OFFSET -8.27202 -0.0477905 -0.4584
                CHANNELS 3 Zrotation Xrotation Yrotation
                JOINT rPinky2
                {
                  OFFSET -1.82734 -0.647385 -0.700984
                  CHANNELS 3 Zrotation Xrotation Yrotation
                  End Site
                  {
                    OFFSET -1.69225 -0.51767 -0.607171
                  }
                }
              }
            }
          }
        }
      }
      JOINT lCollar
      {
        OFFSET 2.68224 19.2634 -4.8768
        CHANNELS 3 Zrotation Xrotation Yrotation
        JOINT lShldr
        {
          OFFSET 8.77824 -1.95073 1.46304
          CHANNELS 3 Zrotation Xrotation Yrotation
          JOINT lForeArm
          {
            OFFSET 28.1742 -1.7115 0.48768
            CHANNELS 3 Zrotation Xrotation Yrotation
            JOINT lHand
            {
              OFFSET 22.5879 0.773209 7.07136
              CHANNELS 3 Zrotation Xrotation Yrotation
              JOINT lThumb1
              {
                OFFSET 1.2192 -0.487915 3.41376
                CHANNELS 3 Zrotation Xrotation Yrotation
                JOINT lThumb2
                {
                  OFFSET 3.37035 -0.52449 3.41376
                  CHANNELS 3 Zrotation Xrotation Yrotation
                  End Site
                  {
                    OFFSET 1.78271 -1.18214 1.43049
                  }
                }
              }
              JOINT lIndex1
              {
                OFFSET 7.75947 0.938293 5.60832
                CHANNELS 3 Zrotation Xrotation Yrotation
                JOINT lIndex2
                {
                  OFFSET 2.54057 -0.884171 1.56538
                  CHANNELS 3 Zrotation Xrotation Yrotation
                  End Site
                  {
                    OFFSET 1.62519 -0.234802 1.16502
                  }
                }
              }
              JOINT lMid1
              {
                OFFSET 8.24714 1.18213 3.41376
                CHANNELS 3 Zrotation Xrotation Yrotation
                JOINT lMid2
                {
                  OFFSET 3.10165 -0.590103 1.0647
                  CHANNELS 3 Zrotation Xrotation Yrotation
                  End Site
                  {
                    OFFSET 2.48547 -0.328903 0.83742
                  }
                }
              }
              JOINT lRing1
              {
                OFFSET 8.82822 0.546677 1.51678
                CHANNELS 3 Zrotation Xrotation Yrotation
                JOINT lRing2
                {
                  OFFSET 2.60934 -0.819778 -0.0198488
                  CHANNELS 3 Zrotation Xrotation Yrotation
                  End Site
                  {
                    OFFSET 2.33842 -0.294052 0.168128
                  }
                }
              }
              JOINT lPinky1
              {
                OFFSET 8.27202 -0.0477905 -0.4584
                CHANNELS 3 Zrotation Xrotation Yrotation
                JOINT lPinky2
                {
                  OFFSET 1.82734 -0.647385 -0.700984
                  CHANNELS 3 Zrotation Xrotation Yrotation
                  End Site
                  {
                    OFFSET 1.69225 -0.51767 -0.607171
                  }
                }
              }
            }
          }
        }
      }
    }
  }
  JOINT rButtock
  {
    OFFSET -8.77824 4.35084 1.2192
    CHANNELS 3 Zrotation Xrotation Yrotation
    JOINT rThigh
    {
      OFFSET 0 -1.70687 -2.19456
      CHANNELS 3 Zrotation Xrotation Yrotation
      JOINT rShin
      {
        OFFSET 0 -36.8199 0.73152
        CHANNELS 3 Zrotation Xrotation Yrotation
        JOINT rFoot
        {
          OFFSET 0.73152 -45.1104 -5.12064
          CHANNELS 3 Zrotation Xrotation Yrotation
          End Site
          {
            OFFSET -1.1221 -3.69964 12.103
          }
        }
      }
    }
  }
  JOINT lButtock
  {
    OFFSET 8.77824 4.35084 1.2192
    CHANNELS 3 Zrotation Xrotation Yrotation
    JOINT lThigh
    {
      OFFSET 0 -1.70687 -2.19456
      CHANNELS 3 Zrotation Xrotation Yrotation
      JOINT lShin
      {
        OFFSET 0 -36.8199 0.73152
        CHANNELS 3 Zrotation Xrotation Yrotation
        JOINT lFoot
        {
          OFFSET -0.73152 -45.1104 -5.12064
          CHANNELS 3 Zrotation Xrotation Yrotation
          End Site
          {
            OFFSET 1.1221 -3.69964 12.103
          }
        }
      }
    }
  }
}
MOTION
Frames:	6
Frame Time:	0.00833333
9.68674 85.3572 217.861 0.0 0.0 0.0 1.31605 -0.00470386 0.0362378 0.363463 -0.00359462 0.0629627 8.26658e-15 0.0 1.2424e-16 2.44536e-14 3.18055e-15 4.95409e-16 -0.0 0.0 0.0 -0.0 0.0 0.0 4.07392e-15 3.88251e-18 2.98177e-16 8.74663e-14 -2.17421e-16 2.78299e-15 1.46966e-12 -4.38917e-13 2.22639e-14 1.68003e-11 4.45849e-13 3.68944e-13 3.96293e-11 1.5437e-14 8.55569e-13 6.84261e-11 2.54444e-14 1.47816e-12 3.96333e-11 1.66979e-14 8.42847e-13 7.73091 5.47488 0.417314 3.96281e-11 1.51076e-14 8.5875e-13 2.90554 0.965183 0.102902 3.96283e-11 1.54058e-14 8.6034e-13 10.2786 0.731801 0.0259123 3.96232e-11 1.66979e-14 8.71472e-13 2.22167 -0.733487 -0.20892 3.87775e-15 1.55301e-18 -9.93923e-17 8.31418e-14 -2.17421e-16 1.19271e-15 1.46236e-12 4.44284e-13 6.36111e-15 1.67879e-11 -4.24579e-13 4.07111e-13 3.95957e-11 4.43052e-14 8.74653e-13 6.83974e-11 7.63333e-14 1.50361e-12 3.95935e-11 4.37326e-14 8.84194e-13 -7.73091 5.47488 -0.417314 3.9597e-11 4.3832e-14 8.71472e-13 -2.90554 0.965183 -0.102902 3.95921e-11 4.40308e-14 8.69087e-13 -10.2786 0.731801 -0.0259123 3.96017e-11 4.53229e-14 8.55569e-13 -2.22167 -0.733487 0.20892 -2.03217e-16 0.0 -3.88251e-19 1.46218 -6.13863 -0.134739 0.0018068 5.5615 0.0541948 -0.477883 0.575017 0.0659361 2.03217e-16 0.0 3.88251e-19 0.544672 -1.92085 0.00800573 0.00891055 -2.07861 0.0733855 0.452889 3.99724 -0.131547
10.9329 81.7279 205.935 178.401 -2.0655 -171.439 -0.141042 0.108723 3.22772 0.944575 0.89383 0.921069 -0.796643 -5.25275 -1.03052 2.00358 9.1535 -3.16725 -0.0 0.0 0.0 -0.0 0.0 0.0 -3.33604e-14 5.65666e-14 -2.15491e-14 20.7562 13.2823 1.08699 -20.8233 -18.6265 15.1355 0.0098444 2.20129 0.308547 3.49662e-10 1.08481e-09 -2.36173e-10 6.03717e-10 1.88106e-09 -4.10398e-10 3.49668e-10 1.08481e-09 -2.36187e-10 7.73091 5.47488 0.417314 3.49661e-10 1.08481e-09 -2.36171e-10 2.90554 0.965183 0.102902 3.49664e-10 1.08481e-09 -2.3617e-10 10.2786 0.731801 0.0259123 3.49658e-10 1.08481e-09 -2.3616e-10 2.22167 -0.733487 -0.20892 -3.35205e-14 5.65706e-14 -2.189e-14 -19.2869 15.0338 7.06269 21.4938 -19.3318 -15.086 -0.0457838 4.74938 -0.659226 -5.14113e-10 -5.13226e-11 4.89543e-10 -8.82677e-10 -6.3189e-11 8.54413e-10 -5.14115e-10 -5.13234e-11 4.89551e-10 -7.73091 5.47488 -0.417314 -5.14113e-10 -5.13261e-11 4.89535e-10 -2.90554 0.965183 -0.102902 -5.14118e-10 -5.13222e-11 4.89536e-10 -10.2786 0.731801 -0.0259123 -5.14106e-10 -5.13209e-11 4.89522e-10 -2.22167 -0.733487 0.20892 -2.03217e-16 0.0 -3.88251e-19 2.29801 -8.69153 0.40149 0.0279352 15.2269 0.233117 -0.537684 4.96338 -6.13883 2.03217e-16 0.0 3.88251e-19 0.440876 -14.285 -2.34604 0.0369739 12.4227 -0.0912768 0.365882 8.10811 3.92149
10.8193 82.443 204.38 178.045 -2.364 -171.049 -1.66896 0.249774 6.59654 1.53037 1.83538 1.82761 -1.838 -10.7908 -2.14014 5.25768 18.7166 -6.77325 -0.0 0.0 0.0 -0.0 0.0 0.0 -7.33434e-14 1.17974e-13 -4.5736e-14 42.1024 27.279 2.45972 -30.8362 -33.6771 36.2457 -0.00560932 4.53107 0.636652 6.8742e-10 2.26487e-09 -4.92744e-10 1.18691e-09 3.92739e-09 -8.56261e-10 6.87427e-10 2.26486e-09 -4.92758e-10 7.73091 5.47488 0.417314 6.87419e-10 2.26487e-09 -4.92742e-10 2.90554 0.965183 0.102902 6.87424e-10 2.26487e-09 -4.92742e-10 10.2786 0.731801 0.0259123 6.87418e-10 2.26487e-09 -4.92733e-10 2.22167 -0.733487 -0.20892 -7.3464e-14 1.17985e-13 -4.60155e-14 -44.2232 30.1262 16.2449 31.6259 -34.962 -36.6001 0.0262504 9.77085 -1.37174 -1.11964e-09 -1.06162e-10 1.02454e-09 -1.92275e-09 -1.30045e-10 1.78817e-09 -1.11965e-09 -1.06163e-10 1.02455e-09 -7.73091 5.47488 -0.417314 -1.11964e-09 -1.06169e-10 1.02453e-09 -2.90554 0.965183 -0.102902 -1.11965e-09 -1.0616e-10 1.02453e-09 -10.2786 0.731801 -0.0259123 -1.11964e-09 -1.06159e-10 1.02452e-09 -2.22167 -0.733487 0.20892 -2.03217e-16 0.0 -3.88251e-19 3.24973 -11.4264 0.990609 -0.0156671 25.471 0.452281 0.41893 9.33098 -12.8459 2.03217e-16 0.0 3.88251e-19 -0.887278 -27.305 -5.26486 0.168348 27.9309 -0.297981 -0.377087 12.3608 8.41398
10.7282 83.1781 202.83 177.709 -2.4692 -170.437 -3.09295 0.331378 9.61082 2.02611 2.68618 2.63985 -2.97526 -15.7374 -3.1986 9.34791 27.1036 -10.5504 -0.0 0.0 0.0 -0.0 0.0 0.0 -1.08229e-13 1.69692e-13 -6.52437e-14 60.3719 39.7805 4.13125 -30.0779 -38.2225 60.1942 -0.0419938 6.60311 0.931135 9.69728e-10 3.25439e-09 -7.10231e-10 1.6743e-09 5.64312e-09 -1.23415e-09 9.69736e-10 3.25438e-09 -7.10246e-10 7.73091 5.47488 0.417314 9.69727e-10 3.25439e-09 -7.1023e-10 2.90554 0.965183 0.102902 9.69734e-10 3.25439e-09 -7.1023e-10 10.2786 0.731801 0.0259123 9.69728e-10 3.25439e-09 -7.10223e-10 2.22167 -0.733487 -0.20892 -1.08317e-13 1.69709e-13 -6.54712e-14 -71.875 41.8714 27.9959 30.3236 -39.5198 -61.4384 0.199292 14.2405 -2.0334 -1.62153e-09 -1.54056e-10 1.46688e-09 -2.78483e-09 -1.8972e-10 2.56023e-09 -1.62153e-09 -1.54058e-10 1.46688e-09 -7.73091 5.47488 -0.417314 -1.62153e-09 -1.54066e-10 1.46686e-09 -2.90554 0.965183 -0.102902 -1.62154e-09 -1.54055e-10 1.46687e-09 -10.2786 0.731801 -0.0259123 -1.62152e-09 -1.54053e-10 1.46685e-09 -2.22167 -0.733487 0.20892 -2.03217e-16 0.0 -3.88251e-19 4.11699 -13.7934 1.50189 -0.137099 34.5561 0.688373 2.2021 13.0996 -18.9914 2.03217e-16 0.0 3.88251e-19 -3.54384 -38.7181 -8.77548 0.404906 41.4239 -0.55225 -1.60048 16.0239 12.3981
10.6711 83.9414 201.207 177.526 -2.5685 -170.075 -4.21874 0.270262 11.7385 2.35253 3.31239 3.21399 -3.94286 -19.2242 -4.03049 13.126 32.8742 -13.7908 -0.0 0.0 0.0 -0.0 0.0 0.0 -1.30371e-13 1.97185e-13 -7.30534e-14 72.3802 48.6062 5.76823 -28.429 -35.1623 75.614 -0.0797737 8.03154 1.13629 1.11341e-09 3.76757e-09 -8.3001e-10 1.92221e-09 6.53237e-09 -1.4421e-09 1.11342e-09 3.76756e-09 -8.30026e-10 7.73091 5.47488 0.417314 1.11341e-09 3.76757e-09 -8.3001e-10 2.90554 0.965183 0.102902 1.11342e-09 3.76757e-09 -8.30011e-10 10.2786 0.731801 0.0259123 1.11341e-09 3.76758e-09 -8.30004e-10 2.22167 -0.733487 -0.20892 -1.30443e-13 1.97203e-13 -7.32521e-14 -95.3106 48.1897 39.5245 28.4293 -36.1345 -77.2348 0.383464 17.3378 -2.51468 -1.86431e-09 -1.8459e-10 1.67757e-09 -3.20188e-09 -2.31439e-10 2.92804e-09 -1.86432e-09 -1.84589e-10 1.67758e-09 -7.73091 5.47488 -0.417314 -1.86432e-09 -1.846e-10 1.67756e-09 -2.90554 0.965183 -0.102902 -1.86432e-09 -1.84588e-10 1.67756e-09 -10.2786 0.731801 -0.0259123 -1.8643e-09 -1.84587e-10 1.67755e-09 -2.22167 -0.733487 0.20892 -2.03217e-16 0.0 -3.88251e-19 4.6589 -15.2443 1.79305 -0.281684 40.7455 0.87585 4.12243 15.9554 -23.3561 2.03217e-16 0.0 3.88251e-19 -6.67742 -46.3792 -12.2049 0.649825 49.8805 -0.786271 -2.68351 18.5208 14.7725
10.6098 84.551 199.632 177.336 -2.6759 -169.726 -4.9824 -0.0103164 12.656 2.48168 3.63023 3.46102 -4.4844 -20.6922 -4.49412 15.1509 35.2406 -15.5324 -0.0 0.0 0.0 -0.0 0.0 0.0 -1.34893e-13 1.89944e-13 -6.63483e-14 76.7135 52.3429 6.50233 -28.3404 -32.8698 80.6973 -0.0966248 8.55777 1.21243 1.05555e-09 3.60959e-09 -8.18253e-10 1.82192e-09 6.25691e-09 -1.4212e-09 1.05556e-09 3.60959e-09 -8.18268e-10 7.73091 5.47488 0.417314 1.05555e-09 3.60959e-09 -8.18254e-10 2.90554 0.965183 0.102902 1.05556e-09 3.60959e-09 -8.18255e-10 10.2786 0.731801 0.0259123 1.05555e-09 3.6096e-09 -8.18247e-10 2.22167 -0.733487 -0.20892 -1.3498e-13 1.89957e-13 -6.65533e-14 -105.655 49.9223 45.2416 28.338 -33.6559 -82.2795 0.469101 18.522 -2.705 -1.74186e-09 -1.73434e-10 1.57496e-09 -2.99148e-09 -2.17958e-10 2.74881e-09 -1.74186e-09 -1.73429e-10 1.57497e-09 -7.73091 5.47488 -0.417314 -1.74186e-09 -1.73441e-10 1.57494e-09 -2.90554 0.965183 -0.102902 -1.74186e-09 -1.73434e-10 1.57495e-09 -10.2786 0.731801 -0.0259123 -1.74185e-09 -1.73431e-10 1.57494e-09 -2.22167 -0.733487 0.20892 -2.03217e-16 0.0 -3.88251e-19 4.65266 -15.3926 1.76517 -0.349851 42.7965 0.914236 5.39844 18.0051 -24.9802 2.03217e-16 0.0 3.88251e-19 -8.47178 -49.0356 -13.9979 0.694374 51.0941 -0.822344 -2.91391 19.5051 14.5399
